<svg width="109" height="24" viewBox="0 0 109 24" fill="none" xmlns="http://www.w3.org/2000/svg">
<g clip-path="url(#clip0_2_2)">
<path d="M28.735 23.2937C29.018 23.6167 28.788 24.1227 28.359 24.1227H22.452C22.167 24.1227 21.896 24.0017 21.707 23.7897L12.293 13.2637V23.6237C12.293 23.8997 12.069 24.1237 11.793 24.1237H6.5C6.224 24.1237 6 23.8997 6 23.6237V0.623667C6 0.347667 6.224 0.123667 6.5 0.123667H11.793C12.069 0.123667 12.293 0.347667 12.293 0.623667V10.4387L21.434 0.448667C21.624 0.241667 21.891 0.123667 22.172 0.123667H27.934C28.371 0.123667 28.598 0.644667 28.3 0.964667L18.449 11.5277L28.736 23.2947L28.735 23.2937Z" fill="url(#paint0_linear_2_2)"/>
<path d="M36.5 24.1227C36.224 24.1227 36 23.8987 36 23.6227V0.622666C36 0.346666 36.224 0.122666 36.5 0.122666H41.793C42.069 0.122666 42.293 0.346666 42.293 0.622666V19.0507H52.052C52.328 19.0507 52.552 19.2747 52.552 19.5507V23.6227C52.552 23.8987 52.328 24.1227 52.052 24.1227H36.5Z" fill="url(#paint1_linear_2_2)"/>
<path d="M81.279 0.622666C81.279 0.346666 81.503 0.122666 81.779 0.122666H91.094C93.761 0.122666 96.053 0.599666 97.968 1.55267C99.906 2.50567 101.388 3.89067 102.414 5.70567C103.44 7.49867 103.953 9.63167 103.953 12.1057C103.953 14.6017 103.44 16.7577 102.414 18.5737C101.411 20.3667 99.94 21.7397 98.002 22.6927C96.087 23.6457 93.784 24.1227 91.094 24.1227H81.779C81.503 24.1227 81.279 23.8987 81.279 23.6227V0.622666V0.622666ZM90.649 19.0847C93.02 19.0847 94.787 18.5057 95.95 17.3487C97.113 16.1917 97.694 14.4437 97.694 12.1067C97.694 9.76867 97.113 8.03267 95.95 6.89767C94.787 5.74067 93.02 5.16167 90.649 5.16167H87.571V19.0847H90.649Z" fill="url(#paint2_linear_2_2)"/>
<path d="M58.5 24.1227C58.224 24.1227 58 23.8987 58 23.6227V0.622667C58 0.346667 58.224 0.122667 58.5 0.122667H63.793C64.069 0.122667 74.5 -0.153333 74.5 0.122667V5.12267H63.793V9.62267H72V14.1227H64.293V18.6227H74.5V24.1227H63.793C64.069 24.1227 63.793 24.3987 63.793 24.1227H58.5Z" fill="url(#paint3_linear_2_2)"/>
</g>
<defs>
<linearGradient id="paint0_linear_2_2" x1="17.4298" y1="0.123669" x2="29.5981" y2="1.70047" gradientUnits="userSpaceOnUse">
<stop stop-color="#47FE9B"/>
<stop offset="1" stop-color="#47FE9B"/>
<stop offset="1" stop-color="#B59C6B"/>
</linearGradient>
<linearGradient id="paint1_linear_2_2" x1="44.276" y1="0.122669" x2="53.1565" y2="0.955893" gradientUnits="userSpaceOnUse">
<stop stop-color="#47FE9B"/>
<stop offset="1" stop-color="#47FE9B"/>
<stop offset="1" stop-color="#B59C6B"/>
</linearGradient>
<linearGradient id="paint2_linear_2_2" x1="81" y1="0.122663" x2="95.969" y2="-3.35108" gradientUnits="userSpaceOnUse">
<stop stop-color="#47FE9B"/>
<stop offset="1" stop-color="#47FE9B"/>
<stop offset="1"/>
</linearGradient>
<linearGradient id="paint3_linear_2_2" x1="61.1465" y1="0.122663" x2="64.5482" y2="0.244011" gradientUnits="userSpaceOnUse">
<stop stop-color="#47FE9B"/>
<stop offset="1" stop-color="#47FE9B"/>
<stop offset="1" stop-color="#B59C6B"/>
</linearGradient>
<clipPath id="clip0_2_2">
<rect width="109" height="24" fill="white"/>
</clipPath>
</defs>
</svg>
